<svg class="svg-icon" style="width: 1em;height: 1em;vertical-align: middle;fill: currentColor;overflow: hidden;" viewBox="0 0 1024 1024" version="1.1" xmlns="http://www.w3.org/2000/svg"><path d="M147.7 654.19a365.58 133.15 0 1 0 731.16 0 365.58 133.15 0 1 0-731.16 0Z" fill="#CCB03A" /><path d="M152.59 649.31a359.81 128.28 0 1 0 719.62 0 359.81 128.28 0 1 0-719.62 0Z" fill="#F9DE6B" /><path d="M804.16 600.05l-23.65-2.98c6.57-10.85 10.43-20.86 10.92-28.75-5.29-2.37-47.92-16.68-68.91-24.04-0.42-0.15-0.87-0.23-1.3-0.36-40.64-19.93-119.38-24.18-169.21-11.97-58.3 14.28-151.29 68.72-143.56 133.8h-8.42l-3.04 7.81 12.44-2.66c13.86 39.29 135.12 48.59 239.04 19.27 8.88-2.51 17.13-5.42 24.77-8.66 0.02-0.01 0.04-0.01 0.06-0.02 37.61-12.52 70.55-38.25 92.04-63.59l38.82-17.85z" fill="#D3B846" /><path d="M371.882 251.956l7.248-2.937 126.299 311.646-7.248 2.937z" fill="#A3ACB5" /><path d="M373.508 252.461l4.17-1.69 126.3 311.646-4.171 1.69z" fill="#808A93" /><path d="M777.99 536.86l-121.33-22.14v-15.79l121.33 22.14zM510.04 632.1l0.16 55.16-11.99 3.82-0.16-55.15z" fill="#88A0A5" /><path d="M498.21 691.08l-12.19-1.39-0.16-55.15 12.19 1.39z" fill="#BCD1D3" /><path d="M408.82 614.58l0.16 55.16-11.99 3.82-0.15-55.15z" fill="#9AB1B7" /><path d="M397 673.55l-12.2-1.39-0.14-48.47 12.2 2.25zM411.79 654.17l-10.81-2.08v-11.94l1.41 0.26c1.39 4.96 4.65 9.64 9.4 13.76z" fill="#D4E5E8" /><path d="M485.86 656.65l-84.89-16.3 5.84-0.99 79.05 14.02z" fill="#AEC9CC" /><path d="M767.7 549.21l0.16 55.15-11.99 3.83-0.16-55.16z" fill="#9AB1B7" /><path d="M755.87 608.19l-12.2-1.39-0.15-55.15 12.19 1.38z" fill="#BCD1D3" /><path d="M666.48 531.69l0.16 55.15-11.99 3.83-0.16-55.16z" fill="#9AB1B7" /><path d="M654.65 590.67l-12.2-1.39-0.15-55.15 12.19 1.38zM743.52 585.51l-84.89-16.31v-11.95l84.89 16.31z" fill="#BCD1D3" /><path d="M743.52 573.75l-84.89-16.3 5.84-0.98 79.05 14.02z" fill="#AEC9CC" /><path d="M777.99 521.07l-121.33-22.15 10.46-3.35 121.33 22.15z" fill="#D4E5E8" /><path d="M396.86 625.94l-12.2-2.25-0.03-6.66 12.2 1.38z" fill="#AFC4C6" /><path d="M356.75 562.8c31.69-8.08 161.07-37.2 116.69-4.71s-107.73 34.11-112.05 54.14-12.44 48.71-16.23 50.33c-3.79 1.63-57.38-9.39-33.02-35s-16.3-49.23 44.61-64.76z" fill="#EACE59" /><path d="M396.86 625.94l12.02 7.31-0.03-11.07-11.96-3.77z" fill="#819499" /><path d="M797.05 518.72v20.99l-35.84 11.53c5.2-4.65 13.52-12.57 12.34-24.95l23.5-7.57z" fill="#A9C1C4" /><path d="M398.85 620.89l-28.23-5.13v-20.99l20.44 3.72c-0.09 0.75-0.12 1.5-0.12 2.28 0.01 7.2 2.83 14.04 7.91 20.12z" fill="#D4E5E8" /><path d="M726.28 476.86l-6.49 10.55 20.3 47.64 8.64-3.53z" fill="#A5BFC6" /><path d="M719.79 487.41h-4.21l20.18 46.69 4.33 0.95z" fill="#82999E" /><path d="M773.54 526.3l-281.58 90.6-121.32-22.11 20.45-6.46L507.79 606l259.73-81.66z" fill="#8FAEB5" /><path d="M391.29 596.81l-17.16-3.03V582.1l12.02 2.13c0.44 4.48 2.23 8.72 5.14 12.58z" fill="#73CAE5" /><path d="M491.99 614.58l191.94-60.2-7.17-9.17-184.77 57.7z" fill="#48ADCC" /><path d="M737.65 451.3c1.41 3.04 2.71 6.34 1.55 11.09l-55.28 91.97-7.18-9.17 60.91-93.89z" fill="#48ADCC" /><path d="M676.74 545.2l-184.76 57.7-105.83-18.66c6.57-8.82 16.21-7.18 39.79-18.31 0.03 0 0.03-0.03 0.06-0.03l132.91-41.5 117.83 20.8z" fill="#429FCE" /><path d="M660.82 547.8l-155.64 48.21a57.666 57.666 0 0 1-26.71 1.77L391.29 583c6.16-6.28 23.76-8.1 45.53-18.38 0.03 0 0.03-0.03 0.05-0.03l118.06-36.86c3.03-0.95 6.25-1.15 9.37-0.6l96.29 16.99c1.96 0.36 2.13 3.1 0.23 3.68z" fill="#3793B7" /><path d="M735.95 434.98c-3.03-6.06-9.72-10.67-15.49-13.73-1.59-0.84-3.09-1.56-4.44-2.19l-79.7-14.07-77.4 119.41 117.83 20.79 60.9-93.89v-0.03c0.12-1.36 0.17-2.71 0.2-4.01v-0.03c0.11-4.78-0.38-9.19-1.9-12.25z" fill="#50BDD6" /><path d="M737.85 447.24v0.03l-59.72 92.48a6.696 6.696 0 0 1-6.78 2.97l-100.03-17.56c-4.73-0.81-7.07-6.2-4.47-10.24l67.59-104.62a6.632 6.632 0 0 1 6.78-2.94l79.24 13.9c5.77 3.06 12.46 7.67 15.49 13.73 1.52 3.05 2.01 7.46 1.9 12.25z" fill="#3DADBF" /><path d="M797.05 518.74l-23.51 7.56-6.02-1.96 20.99-6.6z" fill="#D4E5E8" /><path d="M354.96 234.63c-0.06 0.09-0.12 0.14-0.14 0.23 0.03-0.06 0.06-0.14 0.12-0.23 0.06-0.12 0.14-0.23 0.26-0.37-0.1 0.14-0.18 0.25-0.24 0.37z" fill="#E5C645" /><path d="M355.19 234.25c-0.09 0.14-0.17 0.26-0.23 0.37h-0.03c0.06-0.11 0.14-0.22 0.26-0.37zM378.6 213.4c-1.56 1.18-3 2.39-4.35 3.6-5.8 1.61-34.05 10.94-48.04 19.55h-0.03s-0.03 0-0.03 0.03c-1.61 0.35-13.93 3.95-15.11 4.38 20.27-11.15 43.02-20.58 67.56-27.56z" fill="#E22B2B" /><path d="M354.96 234.63c-0.06 0.09-0.12 0.14-0.14 0.23 0.03-0.06 0.06-0.14 0.12-0.23h0.02z" fill="#E5C645" /><path d="M499.28 445.51c-15.25 6.75-31.51 12.51-48.61 17.16-26.3 7.09-52.28 10.84-76.85 11.47-1.07-4.71-4.72-22.07-7.22-39.48 35.3-2.77 75.85-12.77 116.12-32.57 3.51 6.15 14.42 33.74 16.56 43.42z" fill="#E22B2B" /><path d="M618.7 332.76c-14.1 43.45-58.37 85.73-119.42 112.75-4.25-16.08-13-35.63-16.56-43.42 49.11-24.5 85.93-59.32 103-95.69 12.12 8.18 23.25 16.98 32.98 26.36z" fill="#E5C645" /><path d="M618.7 332.76c-9.73-9.38-20.86-18.18-32.98-26.36 10.61-22.56 13.61-45.71 7.24-67.38 13.62 11.97 23.26 26.51 27.76 43.27 4.41 16.44 3.48 33.54-2.02 50.47z" fill="#E22B2B" /><path d="M378.6 213.4c-5.85 4.02-14.48 14.64-17.22 19.67 0.23 0.14 0.81 0.58 0.84 0.61 41.09-20.27 105.42-28.5 156.81-28.38-39.67-7.99-94.04-2.27-140.43 8.1z" fill="#EFD66A" /><path d="M374.25 217.01c-1.44 1.3-12.49 15.34-12.86 16.06-0.55-0.35-6.4 1.44-6.46 1.56-3.6-0.35-28.12 1.79-28.72 1.93 17.41-9.78 36.01-16.26 48.04-19.55z" fill="#EF5959" /><path d="M311.04 240.97c-49.11 26.93-84.03 64.05-95.97 101.97 1.93-3.2 136.05-103.76 136.92-104.74 0 0 2.68-3.14 2.82-3.34 0.03-0.06 0.06-0.14 0.12-0.23-12.44-1.65-26.02-0.38-43.89 6.34z" fill="#EFD66A" /><path d="M263.18 420.49c-0.71 4.52-1.28 9.03-1.68 13.48-0.09 0.7-0.15 1.39-0.17 2.08-0.18 1.99-0.29 3.95-0.41 5.88-0.06 1.27-0.08 2.54-0.11 3.78-0.03 1.33-0.06 2.65-0.06 3.98-24.05-13.9-40.98-33.34-47.38-57.27a80.39 80.39 0 0 1-2.58-15.33c10.84 18.78 29.12 33.46 52.39 43.4z" fill="#E22B2B" /><path d="M373.82 474.14c-44.18 1.19-83.89-7.55-113.07-24.45 0-1.33 0.03-2.65 0.06-3.98 0.03-1.24 0.05-2.51 0.11-3.78 0.12-1.93 0.23-3.89 0.41-5.88 0.02-0.69 0.08-1.38 0.17-2.08 0.4-4.45 0.97-8.96 1.68-13.48 28.48 12.18 64.43 17.28 103.42 14.17 0.24 1.71 0.5 3.42 0.76 5.12a418.304 418.304 0 0 0 1.31 8.17c0.29 1.73 0.58 3.44 0.89 5.15l0.06 0.34c0.21 1.2 0.43 2.39 0.66 3.57 0.17 0.91 0.34 1.82 0.52 2.72 0.94 4.89 1.95 9.7 3.02 14.41z" fill="#E5C645" /><path d="M355.19 234.25c-0.09 0.14-0.17 0.26-0.23 0.37-0.06 0.09-0.12 0.14-0.14 0.23 0.03-0.06 0.06-0.14 0.12-0.23 0.05-0.11 0.13-0.22 0.25-0.37z" fill="#A3ACB5" /><path d="M491.96 616.91v20.96l-93.11-16.98c-5.08-6.08-7.9-12.92-7.9-20.13 0-0.78 0.03-1.53 0.12-2.28l100.89 18.43z" fill="#AFC4C6" /><path d="M761.21 551.25l-269.25 86.62v-20.96l281.58-90.61c1.55 9.49-5.68 20.05-12.33 24.95z" fill="#88A0A5" /><path d="M485.85 656.45v11.94l-74.05-14.22c-4.76-4.12-8.02-8.8-9.4-13.76l83.45 16.04z" fill="#BCD1D3" /><path d="M491.99 602.9v11.68l-18.95-3.34-81.75-14.42c-2.91-3.86-4.7-8.1-5.13-12.57l101.82 17.94 4.01 0.71z" fill="#56B4D8" /><path d="M425.95 565.93c-23.59 11.13-33.22 9.49-39.79 18.31l-12.02-2.13 51.81-16.18z" fill="#5FB9DD" /><path d="M286.22 576.67c-40.92 11.59-97.04 28.81-101.43 55.78-4.39 26.97 36.56 51.1 87.92 57.13 51.36 6.03 108.04 14.26 73.39-3.84s-95.64-10.97-82.96-27.42c12.67-16.45 43.93-38.15 25.29-41.01-18.64-2.86-4.85-23.47 7.72-29.62 12.57-6.13 13.09-17.54-9.93-11.02z" fill="#F9EAAF" /><path d="M398.85 737c28.23 12.96 146.59 20.3 173.25 15.43s3.11-25.17-27.74-20.3c-30.85 4.87-100.39 15.55-118.39-0.75-18.02-16.31-58.96-9-27.12 5.62zM788.45 696.78c-18.39 7.73-23.02 32.35 0 25.32s48.19-23.27 50.63-39.51c2.43-16.23-32.25 6.46-50.63 14.19z" fill="#EACE59" /><path d="M745.69 435.13l-7.84 12.11c0.12-4.79-0.37-9.2-1.9-12.26-3.03-6.06-9.72-10.67-15.49-13.73l20.76 3.63c4.73 0.85 7.1 6.21 4.47 10.25z" fill="#59C7D3" /><path d="M745.69 435.13c2.62-4.04 0.26-9.4-4.47-10.24l-20.76-3.63c-1.59-0.84-3.09-1.56-4.44-2.19l38.15 6.75-16.52 25.46c0.12-1.36 0.17-2.71 0.2-4.01v-0.03l7.84-12.11z" fill="#6ED4E5" /><path d="M754.17 425.81v11.68L739.2 462.4c1.15-4.76-0.33-8.29-1.55-11.09v-0.03l16.52-25.47z" fill="#5BCAD6" /><path d="M353.69 236.56c-1.18 1.39-90.32 182.79-90.49 183.8-0.01 0.04-0.01 0.09-0.02 0.13-23.27-9.94-41.55-24.62-52.39-43.4-0.82-11.29 0.69-22.76 4.28-34.15 32.96-56.05 96.32-88.63 138.62-106.38z" fill="#EF4D4D" /><path d="M351.99 238.2c-30.75 32.16-62.37 91.87-78.69 133.21-2.78 7.04-11.79 9.1-17.33 3.94-11.2-10.44-19.49-27.38-21.71-47.53-0.46-4.13 0.88-8.28 3.63-11.4 35.37-40.1 81.31-64.46 114.1-78.22z" fill="#F77777" /><path d="M366.6 434.66c-38.99 3.11-75.77-1.17-103.4-14.3 12.42-75.28 59.88-150.5 93.7-186.38 0.55-0.75 3.94-1.26 4.49-0.91 0.23 0.14 0.46 0.32 0.72 0.52-3.48 57.52-3.48 141.71 4.49 201.07z" fill="#EFD565" /><path d="M347.75 401.01c-22.78 0.13-47.36-4.25-64.71-10.06-5.41-1.81-8.28-7.7-6.48-13.11 18.25-54.82 52.43-113.13 79.4-139.59 0.42-0.58 3.04-0.97 3.46-0.7 0.18 0.11 0.35 0.25 0.55 0.4-2.48 40.92-6.34 106.02-2.07 151.73 0.57 6.03-4.1 11.29-10.15 11.33z" fill="#F7E38D" /><path d="M482.72 402.09c-31.03 16.38-74.11 29.14-116.12 32.57-9.46-64.29-9.89-151.72-4.49-201.07 26.14 16.98 84.51 84.42 120.61 168.5z" fill="#EF4D4D" /><path d="M450.47 381.22c-20.07 8.79-44.4 16.13-68.65 19.76-8.47 1.27-16.33-4.65-17.31-13.15-5.94-51.42-5.86-114.95-1.78-152.29 20.29 13.18 65.02 61.98 95.3 125.29 3.69 7.72 0.28 16.96-7.56 20.39z" fill="#F77777" /><path d="M585.72 306.4c-17.07 36.37-53.89 71.19-103 95.69-24.71-47.59-62.05-123.37-120.24-168.16 83.49 2.56 176.97 38.32 223.24 72.47z" fill="#EFD565" /><path d="M547.88 306.93c-14.02 22.16-35.94 41.44-65.23 57.94-7.13 4.01-16.18 1.34-20.04-5.88-21.03-39.33-51.15-88.92-96.01-123.45 66.87 6.74 132.31 26.41 176.03 50.64 7.41 4.11 9.78 13.59 5.25 20.75z" fill="#F7E38D" /><path d="M585.72 306.4c-57.26-40.91-155.24-69.84-223.24-72.47-0.08-0.11-0.17-0.17-0.26-0.25 32.08-18.31 112.61-29.85 156.82-28.38 29.99 6.04 55.57 17.56 73.92 33.71v0.01c6.37 21.67 3.37 44.82-7.24 67.38z" fill="#EF4D4D" /><path d="M560.53 274.59l-11.27 4.96c-51.43-27.49-126.33-44.67-180.17-46.75-0.07-0.09-0.14-0.14-0.22-0.21 26.77-15.28 112.39-26.33 149.28-25.1 18.35 4.34 29.54 7.99 41.47 13.7 2.59 1.24 4.29 3.8 4.37 6.68 0.26 9.33 0.37 30.94-3.46 46.72z" fill="#F77777" /><path d="M348.67836 237.923958a7.09 11.54 74.812 1 0 22.273848-6.046662 7.09 11.54 74.812 1 0-22.273848 6.046662Z" fill="#A53535" /><path d="M368.54 230.56c0.73 2.71-3.58 5.88-7.98 7.07-4.41 1.19-9.3 0.69-10.03-2.02-0.73-2.71 2.99-6.61 7.4-7.8 4.4-1.19 9.88 0.04 10.61 2.75z" fill="#D84444" /><path d="M365.09 229.89c0.5 1.86-2.46 4.04-5.49 4.86-3.03 0.82-6.4 0.48-6.9-1.39-0.5-1.86 2.05-4.54 5.09-5.36s6.79 0.03 7.3 1.89z" fill="#F77777" /></svg>