<svg class="svg-icon" style="width: 1em; height: 1em;vertical-align: middle;fill: currentColor;overflow: hidden;" viewBox="0 0 1024 1024" version="1.1" xmlns="http://www.w3.org/2000/svg"><path d="M735.4 573.1c-46.8-61.6-188.4-41.3-229.9-97.7-4.6-6.2-5.2-23.1-4.9-35.9 0.1-4.7 2.1-9.3 5.6-12.4 35.1-31.5 59-86.9 59-140.9 0-103.2-16.1-188.7-120.4-188.7-107.6 0-122.8 86.4-121.8 190.4 0.6 53 24.4 107.9 59.3 139.3 3.5 3.2 5.6 7.9 5.7 12.7 0 12.8-0.8 29.4-5.3 35.6-40.9 56.4-186.9 34.8-231.1 97.7-29.2 41.6-37.4 131.9-39.5 170.6-0.6 9.9 7.2 18.2 17 18.2h630.3c9.7 0 17.4-8.2 17-18-2.1-39-10-130.1-41-170.9" fill="#FFB74D" /><path d="M531.1 735.9c0 105.2 85.2 190.5 190.4 190.5S911.9 841.3 912 736.1v-0.1c0-105.2-85.2-190.5-190.4-190.5s-190.5 85.2-190.5 190.4c0-0.1 0 0 0 0z" fill="#43A047" /><path d="M607.2 697.8h228.5V774H607.2v-76.2z" fill="#FFFFFF" /><path d="M683.4 621.7h76.2v228.5h-76.2V621.7z" fill="#FFFFFF" /></svg>